<svg xmlns="http://www.w3.org/2000/svg" viewBox="0 0 300 300" width="300" height="300">
  <g transform="rotate(45 145.87747 152.53033)">
    <path fill="#2E1C00" d="m121.667,-10l5,42l20,6.333l18,-11l-6.333,-43c0,0 36.667,11 39.667,37.333c0,0 3.999,23 -10.334,34l-10.999,10c0,0 -14,10.667 -10.667,34l0,204l-0.333,7.667c0,0 1,9 -9,9.333l-19,0c0,0 -10,1.667 -11.667,-12.333l0,-220.334c0,0 1.333,-12.333 -8.333,-18.333l-12.333,-10c0,0 -21.333,-16.334 -7.333,-45.667c-0.001,0 4.999,-13.999 23.665,-23.999z"></path>
  </g>
</svg>